<svg width="93" height="54" viewBox="0 0 93 54" fill="none" xmlns="http://www.w3.org/2000/svg">
<path d="M1.4 21V6.6H7.48C7.62 6.6 7.80667 6.60667 8.04 6.62C8.28 6.62667 8.49333 6.64667 8.68 6.68C9.54 6.81333 10.2433 7.09667 10.79 7.53C11.3433 7.96333 11.75 8.51 12.01 9.17C12.27 9.82333 12.4 10.5533 12.4 11.36C12.4 12.1667 12.2667 12.9 12 13.56C11.74 14.2133 11.3333 14.7567 10.78 15.19C10.2333 15.6233 9.53333 15.9067 8.68 16.04C8.49333 16.0667 8.28 16.0867 8.04 16.1C7.8 16.1133 7.61333 16.12 7.48 16.12H4.12V21H1.4ZM4.12 13.58H7.36C7.5 13.58 7.65333 13.5733 7.82 13.56C7.98667 13.5467 8.14 13.52 8.28 13.48C8.64667 13.38 8.93 13.2133 9.13 12.98C9.33 12.74 9.46667 12.4767 9.54 12.19C9.62 11.8967 9.66 11.62 9.66 11.36C9.66 11.1 9.62 10.8267 9.54 10.54C9.46667 10.2467 9.33 9.98333 9.13 9.75C8.93 9.51 8.64667 9.34 8.28 9.24C8.14 9.2 7.98667 9.17333 7.82 9.16C7.65333 9.14667 7.5 9.14 7.36 9.14H4.12V13.58ZM14.8078 21V6.6H20.8878C21.0278 6.6 21.2145 6.60667 21.4478 6.62C21.6878 6.62667 21.9011 6.64667 22.0878 6.68C22.9478 6.81333 23.6511 7.09667 24.1978 7.53C24.7511 7.96333 25.1578 8.51 25.4178 9.17C25.6778 9.82333 25.8078 10.5533 25.8078 11.36C25.8078 12.5667 25.5078 13.6 24.9078 14.46C24.3078 15.3133 23.3678 15.84 22.0878 16.04L20.8878 16.12H17.5278V21H14.8078ZM22.9278 21L20.0878 15.14L22.8878 14.6L26.0078 21H22.9278ZM17.5278 13.58H20.7678C20.9078 13.58 21.0611 13.5733 21.2278 13.56C21.3945 13.5467 21.5478 13.52 21.6878 13.48C22.0545 13.38 22.3378 13.2133 22.5378 12.98C22.7378 12.74 22.8745 12.4767 22.9478 12.19C23.0278 11.8967 23.0678 11.62 23.0678 11.36C23.0678 11.1 23.0278 10.8267 22.9478 10.54C22.8745 10.2467 22.7378 9.98333 22.5378 9.75C22.3378 9.51 22.0545 9.34 21.6878 9.24C21.5478 9.2 21.3945 9.17333 21.2278 9.16C21.0611 9.14667 20.9078 9.14 20.7678 9.14H17.5278V13.58ZM28.8062 21V6.6H31.5262V21H28.8062ZM34.9242 21V6.6H37.3642L42.1242 16.16L46.8842 6.6H49.3242V21H46.7842V12.4L42.6042 21H41.6442L37.4642 12.4V21H34.9242ZM52.5312 21V6.6H61.9312V9.14H55.2512V12.22H60.7312V14.76H55.2512V18.46H61.9312V21H52.5312Z" fill="white"/>
<path d="M5.43 48.29C4.16333 48.29 3.12 48.0167 2.3 47.47C1.48667 46.9233 0.986667 46.1633 0.8 45.19L2.3 44.94C2.46 45.5533 2.82333 46.0433 3.39 46.41C3.96333 46.77 4.67 46.95 5.51 46.95C6.33 46.95 6.97667 46.78 7.45 46.44C7.92333 46.0933 8.16 45.6233 8.16 45.03C8.16 44.6967 8.08333 44.4267 7.93 44.22C7.78333 44.0067 7.48 43.81 7.02 43.63C6.56 43.45 5.87333 43.2367 4.96 42.99C3.98 42.7233 3.21333 42.4567 2.66 42.19C2.10667 41.9233 1.71333 41.6167 1.48 41.27C1.24667 40.9167 1.13 40.4867 1.13 39.98C1.13 39.3667 1.30333 38.83 1.65 38.37C1.99667 37.9033 2.47667 37.5433 3.09 37.29C3.70333 37.03 4.41667 36.9 5.23 36.9C6.04333 36.9 6.77 37.0333 7.41 37.3C8.05667 37.56 8.57667 37.9267 8.97 38.4C9.36333 38.8733 9.59667 39.4233 9.67 40.05L8.17 40.32C8.07 39.6867 7.75333 39.1867 7.22 38.82C6.69333 38.4467 6.02333 38.2533 5.21 38.24C4.44333 38.22 3.82 38.3667 3.34 38.68C2.86 38.9867 2.62 39.3967 2.62 39.91C2.62 40.1967 2.70667 40.4433 2.88 40.65C3.05333 40.85 3.36667 41.04 3.82 41.22C4.28 41.4 4.93333 41.5967 5.78 41.81C6.77333 42.0633 7.55333 42.33 8.12 42.61C8.68667 42.89 9.09 43.22 9.33 43.6C9.57 43.98 9.69 44.45 9.69 45.01C9.69 46.03 9.31 46.8333 8.55 47.42C7.79667 48 6.75667 48.29 5.43 48.29ZM18.8178 48.3C17.7445 48.3 16.8278 48.0567 16.0678 47.57C15.3078 47.0833 14.7245 46.41 14.3178 45.55C13.9111 44.69 13.7078 43.7033 13.7078 42.59C13.7078 41.4567 13.9145 40.4633 14.3278 39.61C14.7411 38.7567 15.3278 38.0933 16.0878 37.62C16.8545 37.14 17.7645 36.9 18.8178 36.9C19.8978 36.9 20.8178 37.1433 21.5778 37.63C22.3445 38.11 22.9278 38.78 23.3278 39.64C23.7345 40.4933 23.9378 41.4767 23.9378 42.59C23.9378 43.7233 23.7345 44.72 23.3278 45.58C22.9211 46.4333 22.3345 47.1 21.5678 47.58C20.8011 48.06 19.8845 48.3 18.8178 48.3ZM18.8178 46.89C20.0178 46.89 20.9111 46.4933 21.4978 45.7C22.0845 44.9 22.3778 43.8633 22.3778 42.59C22.3778 41.2833 22.0811 40.2433 21.4878 39.47C20.9011 38.6967 20.0111 38.31 18.8178 38.31C18.0111 38.31 17.3445 38.4933 16.8178 38.86C16.2978 39.22 15.9078 39.7233 15.6478 40.37C15.3945 41.01 15.2678 41.75 15.2678 42.59C15.2678 43.89 15.5678 44.9333 16.1678 45.72C16.7678 46.5 17.6511 46.89 18.8178 46.89ZM28.7437 48V33.3H30.2137V48H28.7437ZM39.7417 48.27C39.0951 48.27 38.5284 48.17 38.0417 47.97C37.5617 47.77 37.1517 47.5 36.8117 47.16C36.4784 46.82 36.2084 46.4333 36.0017 46C35.7951 45.56 35.6451 45.0967 35.5517 44.61C35.4584 44.1167 35.4117 43.6267 35.4117 43.14V37.2H36.8917V42.71C36.8917 43.3033 36.9484 43.8533 37.0617 44.36C37.1751 44.8667 37.3551 45.31 37.6017 45.69C37.8551 46.0633 38.1784 46.3533 38.5717 46.56C38.9717 46.7667 39.4551 46.87 40.0217 46.87C40.5417 46.87 40.9984 46.78 41.3917 46.6C41.7917 46.42 42.1251 46.1633 42.3917 45.83C42.6651 45.49 42.8717 45.08 43.0117 44.6C43.1517 44.1133 43.2217 43.5667 43.2217 42.96L44.2617 43.19C44.2617 44.2967 44.0684 45.2267 43.6817 45.98C43.2951 46.7333 42.7617 47.3033 42.0817 47.69C41.4017 48.0767 40.6217 48.27 39.7417 48.27ZM43.3717 48V45.34H43.2217V37.2H44.6917V48H43.3717ZM55.7667 48C55.1601 48.1267 54.5601 48.1767 53.9667 48.15C53.3801 48.1233 52.8534 47.9967 52.3867 47.77C51.9267 47.5433 51.5767 47.19 51.3367 46.71C51.1434 46.31 51.0367 45.9067 51.0167 45.5C51.0034 45.0867 50.9967 44.6167 50.9967 44.09V34.2H52.4567V44.03C52.4567 44.4833 52.4601 44.8633 52.4667 45.17C52.4801 45.47 52.5501 45.7367 52.6767 45.97C52.9167 46.4167 53.2967 46.6833 53.8167 46.77C54.3434 46.8567 54.9934 46.8367 55.7667 46.71V48ZM48.6867 38.46V37.2H55.7667V38.46H48.6867ZM60.4945 35.15V33.5H61.9645V35.15H60.4945ZM60.4945 48V37.2H61.9645V48H60.4945ZM71.8725 48.3C70.7992 48.3 69.8825 48.0567 69.1225 47.57C68.3625 47.0833 67.7792 46.41 67.3725 45.55C66.9658 44.69 66.7625 43.7033 66.7625 42.59C66.7625 41.4567 66.9692 40.4633 67.3825 39.61C67.7958 38.7567 68.3825 38.0933 69.1425 37.62C69.9092 37.14 70.8192 36.9 71.8725 36.9C72.9525 36.9 73.8725 37.1433 74.6325 37.63C75.3992 38.11 75.9825 38.78 76.3825 39.64C76.7892 40.4933 76.9925 41.4767 76.9925 42.59C76.9925 43.7233 76.7892 44.72 76.3825 45.58C75.9758 46.4333 75.3892 47.1 74.6225 47.58C73.8558 48.06 72.9392 48.3 71.8725 48.3ZM71.8725 46.89C73.0725 46.89 73.9658 46.4933 74.5525 45.7C75.1392 44.9 75.4325 43.8633 75.4325 42.59C75.4325 41.2833 75.1358 40.2433 74.5425 39.47C73.9558 38.6967 73.0658 38.31 71.8725 38.31C71.0658 38.31 70.3992 38.4933 69.8725 38.86C69.3525 39.22 68.9625 39.7233 68.7025 40.37C68.4492 41.01 68.3225 41.75 68.3225 42.59C68.3225 43.89 68.6225 44.9333 69.2225 45.72C69.8225 46.5 70.7058 46.89 71.8725 46.89ZM89.3984 48V42.49C89.3984 41.89 89.3418 41.34 89.2284 40.84C89.1151 40.3333 88.9318 39.8933 88.6784 39.52C88.4318 39.14 88.1084 38.8467 87.7084 38.64C87.3151 38.4333 86.8351 38.33 86.2684 38.33C85.7484 38.33 85.2884 38.42 84.8884 38.6C84.4951 38.78 84.1618 39.04 83.8884 39.38C83.6218 39.7133 83.4184 40.12 83.2784 40.6C83.1384 41.08 83.0684 41.6267 83.0684 42.24L82.0284 42.01C82.0284 40.9033 82.2218 39.9733 82.6084 39.22C82.9951 38.4667 83.5284 37.8967 84.2084 37.51C84.8884 37.1233 85.6684 36.93 86.5484 36.93C87.1951 36.93 87.7584 37.03 88.2384 37.23C88.7251 37.43 89.1351 37.7 89.4684 38.04C89.8084 38.38 90.0818 38.77 90.2884 39.21C90.4951 39.6433 90.6451 40.1067 90.7384 40.6C90.8318 41.0867 90.8784 41.5733 90.8784 42.06V48H89.3984ZM81.5884 48V37.2H82.9184V39.86H83.0684V48H81.5884Z" fill="white"/>
</svg>
