<svg width="1683" height="38" viewBox="0 0 1683 38" fill="none" xmlns="http://www.w3.org/2000/svg">
<path d="M3 16.5C1.61929 16.5 0.5 17.6193 0.5 19C0.5 20.3807 1.61929 21.5 3 21.5V16.5ZM1681.77 20.7678C1682.74 19.7915 1682.74 18.2085 1681.77 17.2322L1665.86 1.32233C1664.88 0.34602 1663.3 0.34602 1662.32 1.32233C1661.35 2.29864 1661.35 3.88155 1662.32 4.85786L1676.46 19L1662.32 33.1421C1661.35 34.1184 1661.35 35.7014 1662.32 36.6777C1663.3 37.654 1664.88 37.654 1665.86 36.6777L1681.77 20.7678ZM3 21.5H1680V16.5H3V21.5Z" fill="#5A6CC0"/>
</svg>
