<svg width="48" height="48" viewBox="0 0 48 48" fill="none" xmlns="http://www.w3.org/2000/svg">
<path fill-rule="evenodd" clip-rule="evenodd" d="M9.04624 7.9672C9.17891 7.74546 9.41831 7.60971 9.6767 7.60971H20.0535C20.3158 7.60971 20.5582 7.74955 20.6895 7.97661L25.7897 16.796C25.9213 17.0235 25.9213 17.304 25.7897 17.5316L20.6895 26.351C20.5582 26.578 20.3158 26.7179 20.0535 26.7179H9.6767C9.41831 26.7179 9.17891 26.5821 9.04624 26.3604L3.7696 17.541C3.63063 17.3087 3.63063 17.0188 3.7696 16.7866L9.04624 7.9672ZM10.0933 9.0791L5.25622 17.1638L10.0933 25.2485H19.6297L24.305 17.1638L19.6297 9.0791H10.0933Z" fill="white"/>
<path fill-rule="evenodd" clip-rule="evenodd" d="M27.6767 18.3479C27.8087 18.1233 28.0497 17.9853 28.3102 17.9853H38.7741C39.0385 17.9853 39.2825 18.1273 39.413 18.3572L44.4707 27.2627C44.5996 27.4896 44.5984 27.7679 44.4676 27.9937L39.4099 36.727C39.2786 36.9538 39.0363 37.0935 38.7741 37.0935H28.3102C28.0519 37.0935 27.8126 36.9579 27.6799 36.7363L22.4479 28.0031C22.3098 27.7726 22.3086 27.485 22.4447 27.2533L27.6767 18.3479ZM28.7306 19.4547L23.9324 27.6218L28.7265 35.6241H38.3506L42.9849 27.6219L38.3465 19.4547H28.7306Z" fill="white"/>
<path fill-rule="evenodd" clip-rule="evenodd" d="M9.04624 28.7186C9.17891 28.4968 9.41831 28.3611 9.6767 28.3611H20.0535C20.3158 28.3611 20.5582 28.5009 20.6895 28.728L25.7897 37.5474C25.9213 37.7749 25.9213 38.0554 25.7897 38.283L20.6895 47.1023C20.5582 47.3294 20.3158 47.4692 20.0535 47.4692H9.6767C9.41831 47.4692 9.17891 47.3335 9.04624 47.1118L3.7696 38.2924C3.63063 38.0601 3.63063 37.7702 3.7696 37.538L9.04624 28.7186ZM10.0933 29.8305L5.25622 37.9152L10.0933 45.9999H19.6297L24.305 37.9152L19.6297 29.8305H10.0933Z" fill="white"/>
<path fill-rule="evenodd" clip-rule="evenodd" d="M14.4254 16.5681C14.6486 16.4358 14.925 16.431 15.1526 16.5555L34.3526 27.056C34.5949 27.1885 34.7424 27.4457 34.7345 27.7218C34.7265 27.9979 34.5643 28.2462 34.3147 28.3645L15.1147 37.464C14.8871 37.5719 14.6201 37.5556 14.4073 37.421C14.1944 37.2863 14.0654 37.052 14.0654 36.8001V17.2001C14.0654 16.9406 14.2022 16.7004 14.4254 16.5681ZM15.5348 18.4393V35.6389L32.3833 27.6537L15.5348 18.4393Z" fill="white"/>
<path fill-rule="evenodd" clip-rule="evenodd" d="M17.8262 37.9273C17.8262 39.6093 16.4398 41.0255 14.7276 41.0255C13.0165 41.0255 11.6001 39.6093 11.6001 37.9273C11.6001 36.1873 13.0165 34.8001 14.7276 34.8001C16.4398 34.8001 17.8262 36.1873 17.8262 37.9273Z" fill="white"/>
<path fill-rule="evenodd" clip-rule="evenodd" d="M36.5684 27.0206C36.5684 28.7399 35.1519 30.1334 33.4698 30.1334C31.7296 30.1334 30.3423 28.7399 30.3423 27.0206C30.3423 25.2713 31.7296 23.9079 33.4698 23.9079C35.1519 23.9079 36.5684 25.2713 36.5684 27.0206Z" fill="white"/>
<path fill-rule="evenodd" clip-rule="evenodd" d="M38.9008 8.43668L37.0423 8.23331C36.897 8.20426 36.7808 8.11606 36.7518 7.9708C36.6646 7.50597 36.4903 7.06915 36.2589 6.63337C36.2008 6.51612 36.2298 6.37085 36.317 6.25464L37.4782 4.79997C37.5944 4.68377 37.5944 4.45135 37.4491 4.33514L36.4903 3.3453C36.346 3.2291 36.1427 3.2291 35.9974 3.3453L34.6027 4.45135C34.4865 4.53851 34.3422 4.56756 34.226 4.4804C33.8193 4.24695 33.4125 4.07263 32.9767 3.92737C32.8314 3.89832 32.7442 3.78211 32.7152 3.63685L32.5118 1.83251C32.5118 1.6582 32.3385 1.6001 32.1642 1.6001H30.7986C30.5952 1.6001 30.451 1.6582 30.4219 1.83251L30.2476 3.6078C30.2185 3.75306 30.1023 3.86927 29.9571 3.89832C29.4922 4.04358 29.0272 4.2179 28.5914 4.4804C28.4762 4.53851 28.3019 4.53851 28.2148 4.45135L26.8201 3.3453C26.6749 3.2291 26.4725 3.2291 26.3563 3.3453L25.3684 4.33514C25.2521 4.45135 25.2231 4.65471 25.3394 4.79997L26.4725 6.22559C26.5596 6.31275 26.5597 6.48708 26.5016 6.60328C26.2691 7.0401 26.0948 7.47691 25.9785 7.9708C25.9495 8.11606 25.8042 8.20426 25.6589 8.23331L23.8876 8.43668C23.7133 8.46573 23.5971 8.61099 23.6261 8.7853V10.1528C23.5971 10.3271 23.7133 10.5014 23.8876 10.5315L25.8042 10.7349C25.9205 10.7349 26.0366 10.8511 26.0948 10.9673C26.211 11.346 26.3563 11.6656 26.5306 12.0142C26.5887 12.1315 26.5596 12.2767 26.4725 12.3929L25.3394 13.8186C25.2231 13.9638 25.2231 14.1672 25.3684 14.2834L26.3272 15.2732C26.4434 15.3894 26.6749 15.4185 26.8201 15.3023L28.2148 14.1672C28.331 14.051 28.5053 14.051 28.6205 14.1381C28.9982 14.3415 29.405 14.5169 29.8118 14.6331C29.957 14.6621 30.0442 14.7783 30.0733 14.9236L30.2766 16.8441C30.3057 17.0184 30.4509 17.1637 30.6242 17.1637H32.0189C32.1933 17.1637 32.3385 17.0184 32.3676 16.8441L32.5699 14.9526C32.5989 14.8074 32.6861 14.6912 32.8314 14.6621C33.2963 14.5169 33.7321 14.3415 34.1389 14.1091C34.2842 14.051 34.4284 14.051 34.5446 14.1381L35.9683 15.3023C36.1136 15.4185 36.3169 15.4185 36.4612 15.2732L37.42 14.3124C37.5362 14.1672 37.5653 13.9638 37.4491 13.8186L36.2879 12.3639C36.2007 12.2477 36.1717 12.1024 36.2589 11.9852C36.4031 11.6656 36.5484 11.346 36.6646 11.0254C36.6937 10.8802 36.8099 10.793 36.9551 10.7639L38.9008 10.5606C39.0751 10.5315 39.1623 10.3852 39.1623 10.1819V8.81435C39.1623 8.61099 39.1042 8.46573 38.9008 8.43668ZM31.3797 12.1605C29.8117 12.1605 28.5344 10.8801 28.5344 9.30926C28.5344 7.73838 29.8117 6.45802 31.3797 6.45802C32.9476 6.45802 34.226 7.73838 34.226 9.30926C34.226 10.8801 32.9476 12.1605 31.3797 12.1605Z" fill="white"/>
<path fill-rule="evenodd" clip-rule="evenodd" d="M17.8262 17.1278C17.8262 18.8099 16.4398 20.2255 14.7276 20.2255C13.0165 20.2255 11.6001 18.8099 11.6001 17.1278C11.6001 15.3871 13.0165 14.0001 14.7276 14.0001C16.4398 14.0001 17.8262 15.3871 17.8262 17.1278Z" fill="white"/>
</svg>
