<svg width="48" height="48" viewBox="0 0 48 48" fill="none" xmlns="http://www.w3.org/2000/svg">
<path d="M1.79004 24.4711C1.25863 22.9651 0.960205 21.4005 0.960205 19.7735C0.959959 18.3488 1.24556 16.9384 1.80032 15.6247C2.35509 14.3109 3.16788 13.1202 4.19119 12.1221C5.21451 11.124 6.42782 10.3386 7.76022 9.81168C9.09262 9.28477 10.5174 9.02697 11.9512 9.05335C13.6478 9.0444 15.3268 9.39375 16.8772 10.0783C18.4275 10.7628 19.8137 11.7668 20.9439 13.0238C22.074 11.7668 23.4602 10.7628 25.0106 10.0783C26.5609 9.39375 28.24 9.0444 29.9365 9.05335C31.3704 9.02697 32.7951 9.28477 34.1275 9.81168C35.4599 10.3386 36.6732 11.124 37.6966 12.1221C38.7199 13.1202 39.5327 14.3109 40.0874 15.6247C40.6422 16.9384 40.9278 18.3488 40.9276 19.7735C40.9276 21.3991 40.6296 22.9639 40.0989 24.4711M5.87013 31.2763C10.2406 36.5075 16.5969 40.9301 20.9439 44.787C25.2943 40.9677 31.637 36.5428 36.0038 31.3103" stroke="white" stroke-width="1.5"/>
<path d="M0.489746 27.8046H9.31773C9.66601 27.8046 9.98921 27.6234 10.1709 27.3262L14.0076 21.0513C14.4316 20.3578 15.462 20.4331 15.7807 21.1808L20.1128 31.3446C20.4232 32.0729 21.4165 32.1688 21.8606 31.5135L26.9005 24.0755C27.3059 23.4772 28.1926 23.4933 28.576 24.1059L30.5973 27.3351C30.7801 27.6272 31.1004 27.8046 31.4449 27.8046H41.3975" stroke="white" stroke-width="1.5"/>
<path fill-rule="evenodd" clip-rule="evenodd" d="M47.7526 9.39326L45.9954 9.20126C45.858 9.17383 45.7482 9.09056 45.7207 8.95341C45.6383 8.51456 45.4735 8.10215 45.2547 7.69072C45.1997 7.58003 45.2272 7.44288 45.3096 7.33316L46.4075 5.95978C46.5174 5.85007 46.5174 5.63064 46.38 5.52093L45.4735 4.5864C45.3371 4.47669 45.1448 4.47669 45.0074 4.5864L43.6888 5.63064C43.5789 5.71293 43.4425 5.74035 43.3326 5.65807C42.948 5.43766 42.5634 5.27308 42.1513 5.13594C42.014 5.10851 41.9315 4.9988 41.904 4.86166L41.7118 3.15815C41.7118 2.99358 41.5479 2.93872 41.3831 2.93872H40.0919C39.8996 2.93872 39.7632 2.99358 39.7358 3.15815L39.5709 4.83423C39.5434 4.97137 39.4336 5.08108 39.2962 5.10851C38.8567 5.24566 38.4171 5.41023 38.005 5.65807C37.8961 5.71293 37.7313 5.71293 37.6489 5.63064L36.3302 4.5864C36.1928 4.47669 36.0015 4.47669 35.8916 4.5864L34.9575 5.52093C34.8476 5.63064 34.8202 5.82264 34.9301 5.95978L36.0015 7.30573C36.0839 7.38802 36.0839 7.5526 36.029 7.66232C35.8092 8.07473 35.6443 8.48713 35.5345 8.95341C35.507 9.09056 35.3696 9.17383 35.2323 9.20126L33.5575 9.39326C33.3927 9.42068 33.2828 9.55783 33.3102 9.7224V11.0135C33.2828 11.1781 33.3927 11.3426 33.5575 11.371L35.3697 11.563C35.4795 11.563 35.5894 11.6728 35.6443 11.7825C35.7542 12.14 35.8916 12.4417 36.0565 12.7709C36.1114 12.8816 36.0839 13.0187 36.0015 13.1284L34.9301 14.4744C34.8202 14.6115 34.8202 14.8035 34.9575 14.9133L35.8641 15.8478C35.974 15.9575 36.1928 15.9849 36.3302 15.8752L37.6489 14.8035C37.7587 14.6938 37.9236 14.6938 38.0325 14.7761C38.3896 14.9681 38.7742 15.1337 39.1588 15.2434C39.2962 15.2708 39.3786 15.3805 39.4061 15.5177L39.5984 17.3309C39.6259 17.4955 39.7632 17.6326 39.927 17.6326H41.2457C41.4106 17.6326 41.5479 17.4955 41.5754 17.3309L41.7667 15.5451C41.7941 15.4079 41.8766 15.2982 42.0139 15.2708C42.4535 15.1337 42.8656 14.9681 43.2502 14.7487C43.3875 14.6938 43.5239 14.6938 43.6338 14.7761L44.9799 15.8752C45.1173 15.9849 45.3096 15.9849 45.446 15.8478L46.3526 14.9407C46.4624 14.8035 46.4899 14.6115 46.38 14.4744L45.2821 13.101C45.1997 12.9913 45.1723 12.8542 45.2547 12.7435C45.3911 12.4417 45.5284 12.14 45.6383 11.8373C45.6658 11.7002 45.7756 11.6179 45.913 11.5905L47.7526 11.3985C47.9175 11.371 47.9999 11.2329 47.9999 11.0409V9.74983C47.9999 9.55783 47.945 9.42068 47.7526 9.39326ZM40.6413 12.909C39.1588 12.909 37.951 11.7002 37.951 10.2171C37.951 8.73398 39.1588 7.52518 40.6413 7.52518C42.1238 7.52518 43.3326 8.73398 43.3326 10.2171C43.3326 11.7002 42.1238 12.909 40.6413 12.909Z" fill="white"/>
<path fill-rule="evenodd" clip-rule="evenodd" d="M29.8744 12.5431C29.9562 12.4975 30.0434 12.4897 30.1055 12.4897H30.708C30.767 12.4897 30.8527 12.4985 30.9327 12.5431C31.0235 12.5937 31.0996 12.6889 31.1059 12.8196L31.1875 13.5424C31.3569 13.601 31.5196 13.6705 31.6822 13.7591L32.2465 13.3122L32.247 13.3118C32.4002 13.1899 32.6169 13.1893 32.7704 13.3127C32.7782 13.319 32.7856 13.3258 32.7926 13.333L33.2077 13.7609C33.2933 13.8368 33.3305 13.9399 33.3343 14.0319C33.3381 14.1218 33.311 14.2247 33.2379 14.3051L32.763 14.8991C32.8466 15.0648 32.9149 15.2372 32.9573 15.4214L33.7071 15.5033L33.7151 15.5043C33.8203 15.5193 33.9191 15.5727 33.9807 15.6733C34.0334 15.7594 34.0408 15.852 34.0408 15.9132V16.5157C34.0408 16.5928 34.0245 16.6829 33.9709 16.7635C33.9133 16.8502 33.8244 16.9068 33.7207 16.9241C33.7158 16.9249 33.7108 16.9256 33.7059 16.9261L32.9098 17.0092C32.8629 17.1333 32.8082 17.2555 32.7561 17.3708L33.231 17.9648C33.3745 18.144 33.3183 18.3638 33.2182 18.4887C33.2126 18.4957 33.2066 18.5023 33.2003 18.5087L32.7777 18.9316C32.6212 19.0887 32.39 19.0879 32.2337 18.963L32.2317 18.9614L31.6503 18.4867C31.4815 18.578 31.3052 18.649 31.1236 18.708L31.0413 19.4771C31.0408 19.4818 31.0401 19.4866 31.0393 19.4913C31.0105 19.6637 30.8619 19.8367 30.6439 19.8367H30.0285C29.8105 19.8367 29.6623 19.6632 29.6336 19.4913C29.6328 19.4865 29.6321 19.4817 29.6316 19.4768L29.5488 18.6962C29.3847 18.6452 29.2241 18.5763 29.0743 18.4986L28.5028 18.963C28.413 19.0348 28.3061 19.0549 28.2169 19.0478C28.1293 19.0408 28.033 19.0056 27.9595 18.9322L27.9567 18.9294L27.5422 18.5021C27.3648 18.3471 27.3925 18.1063 27.5051 17.9653L27.5055 17.9648L27.9748 17.3752C27.9158 17.2543 27.8621 17.1333 27.8161 16.9965L27.0303 16.9133C27.025 16.9127 27.0197 16.912 27.0145 16.9111C26.806 16.8751 26.6765 16.6813 26.6958 16.4877V15.9162C26.6732 15.7027 26.8281 15.5364 27.0159 15.5052C27.02 15.5045 27.0241 15.5039 27.0282 15.5035L27.7566 15.42C27.8077 15.2254 27.878 15.0488 27.966 14.8761L27.5055 14.2976C27.3681 14.1257 27.4067 13.8961 27.5362 13.7665L27.9721 13.3304C28.128 13.1748 28.3603 13.1987 28.5024 13.3118L28.5028 13.3122L29.0664 13.7585C29.252 13.6548 29.4432 13.5829 29.6255 13.5247L29.6955 12.8131C29.6961 12.8076 29.6968 12.8021 29.6977 12.7967C29.716 12.6873 29.7784 12.5965 29.8744 12.5431ZM27.7385 15.4934C27.7388 15.4919 27.7392 15.4904 27.7395 15.4889L27.7385 15.4934ZM30.1713 12.9795L30.1061 13.6432C30.1053 13.6513 30.1041 13.6593 30.1025 13.6673C30.0712 13.8232 29.9512 13.947 29.7977 13.9839C29.6039 14.0448 29.4232 14.1141 29.2578 14.2135C29.2526 14.2167 29.2472 14.2196 29.2417 14.2224C29.1756 14.2557 29.1008 14.2695 29.031 14.2658C28.9675 14.2625 28.8794 14.2426 28.8058 14.1769L28.2547 13.7405L27.9393 14.0561L28.3823 14.6126C28.4483 14.6862 28.4683 14.7744 28.4716 14.8381C28.4753 14.9081 28.4614 14.9827 28.4284 15.0487L28.4256 15.0542C28.3321 15.2298 28.2635 15.4016 28.2177 15.5947C28.1739 15.7997 27.9867 15.8771 27.8856 15.8973C27.879 15.8986 27.8723 15.8997 27.8655 15.9005L27.1856 15.9784V16.4372L27.9189 16.5149C28.0164 16.52 28.0906 16.5675 28.1347 16.6053C28.1841 16.6476 28.2228 16.7 28.2489 16.7521C28.255 16.7642 28.26 16.7768 28.264 16.7898C28.3095 16.9378 28.3668 17.0648 28.4412 17.2133L28.4416 17.2141C28.5202 17.3724 28.4686 17.5356 28.3924 17.6369L28.3883 17.6424L27.9386 18.2072L28.2549 18.5334L28.8035 18.0876C28.94 17.9614 29.1347 17.959 29.2723 18.0494C29.4209 18.1285 29.5772 18.195 29.73 18.2393C29.9106 18.2809 30.0001 18.4296 30.0256 18.5567C30.027 18.5641 30.0282 18.5715 30.029 18.579L30.1104 19.3469H30.5626L30.6435 18.5915C30.6443 18.5841 30.6454 18.5768 30.6469 18.5695C30.6722 18.4432 30.7607 18.2956 30.9389 18.2529C31.1286 18.1932 31.3005 18.1231 31.458 18.0332C31.4678 18.0276 31.478 18.0227 31.4885 18.0185C31.6026 17.973 31.7636 17.9568 31.9051 18.0627C31.9079 18.0648 31.9106 18.0669 31.9132 18.0691L32.4826 18.5339L32.8028 18.2135L32.3363 17.63L32.3318 17.6241C32.2604 17.5291 32.1975 17.3548 32.3 17.1907C32.3593 17.0596 32.4142 16.9377 32.4588 16.8169C32.5037 16.643 32.6496 16.5568 32.774 16.532C32.7815 16.5305 32.789 16.5293 32.7966 16.5286L33.551 16.4498V15.979L32.8338 15.9006C32.8267 15.8998 32.8195 15.8987 32.8125 15.8973C32.6816 15.8712 32.5298 15.7775 32.4921 15.5896L32.4915 15.5867C32.4589 15.4132 32.3928 15.2445 32.2985 15.0672L32.2953 15.0612C32.2168 14.903 32.2684 14.7397 32.3446 14.6383L32.3491 14.6325L32.8107 14.0551L32.5008 13.7356L31.9309 14.187C31.8343 14.2593 31.6538 14.3244 31.4862 14.2106C31.3295 14.1217 31.1717 14.0538 31.0003 13.9961C30.8238 13.9525 30.7362 13.8058 30.711 13.6801C30.7096 13.6733 30.7086 13.6664 30.7078 13.6595L30.631 12.9795H30.1713ZM33.5507 16.5205L33.5508 16.5197L33.5507 16.5205ZM30.3619 15.1199C29.8054 15.1199 29.3513 15.5742 29.3513 16.1312C29.3513 16.6882 29.8054 17.1425 30.3619 17.1425C30.9184 17.1425 31.3729 16.6881 31.3729 16.1312C31.3729 15.5743 30.9184 15.1199 30.3619 15.1199ZM28.8615 16.1312C28.8615 15.304 29.5346 14.6301 30.3619 14.6301C31.189 14.6301 31.8627 15.3039 31.8627 16.1312C31.8627 16.9585 31.189 17.6323 30.3619 17.6323C29.5346 17.6323 28.8615 16.9584 28.8615 16.1312Z" fill="white"/>
</svg>
