<svg width="48" height="48" viewBox="0 0 48 48" fill="none" xmlns="http://www.w3.org/2000/svg">
<path d="M31.6094 2.93882C32.3635 1.6327 34.2487 1.6327 35.0028 2.93882L41.7896 14.6939C42.5437 16 41.6011 17.6327 40.0929 17.6327H26.5193C25.0111 17.6327 24.0685 16 24.8226 14.6939L31.6094 2.93882Z" fill="white"/>
<path fill-rule="evenodd" clip-rule="evenodd" d="M1.71429 9.30617C1.71429 7.81838 2.92039 6.61229 4.40817 6.61229H26.449V8.08168H4.40817C3.7319 8.08168 3.18368 8.6299 3.18368 9.30617V42.6123C3.18368 43.2886 3.73191 43.8368 4.40817 43.8368H14.9388V45.3062H4.40817C2.92038 45.3062 1.71429 44.1001 1.71429 42.6123V9.30617Z" fill="white"/>
<path fill-rule="evenodd" clip-rule="evenodd" d="M20.3331 14.4123C20.5538 14.329 20.7729 14.2463 20.9936 14.1631L21.4593 15.5311C20.8245 15.7146 20.0958 16.0456 19.5159 16.3747L18.8751 15.0727C19.339 14.8416 19.8492 14.5949 20.3331 14.4123ZM17.6634 15.8607L18.4638 17.0464C17.9203 17.4721 17.4388 17.9285 17.0385 18.4664L16.0052 17.5891C16.4558 16.922 17.0511 16.3665 17.6634 15.8607ZM15.2321 18.8714L16.4061 19.5872C16.0416 20.22 15.8646 20.9485 15.7131 21.6112L14.446 21.3174C14.5688 20.445 14.8164 19.6357 15.2321 18.8714ZM14.2411 22.774L15.6035 22.9198C15.5773 23.6473 15.5674 24.423 15.7079 25.1961L14.4116 25.3544C14.3029 24.403 14.2507 23.5965 14.2411 22.774Z" fill="white"/>
<path fill-rule="evenodd" clip-rule="evenodd" d="M25.9706 21.7274C26.2386 21.5781 26.5276 21.5511 26.7409 21.5511H28.8877C29.0889 21.5511 29.373 21.5813 29.6352 21.7273C29.9314 21.8923 30.1774 22.2009 30.1966 22.6258L30.4954 25.2736C31.1397 25.4928 31.7546 25.7548 32.3696 26.0953L34.4375 24.4577L34.4389 24.4566C34.9449 24.0535 35.6607 24.0517 36.1674 24.4593C36.1918 24.479 36.215 24.5001 36.2368 24.5226L37.7185 26.05C38.0003 26.2984 38.1234 26.6373 38.1361 26.9411C38.1485 27.2386 38.0583 27.577 37.8184 27.8394L36.0806 30.0133C36.4017 30.6398 36.6605 31.2902 36.8124 31.9875L39.5614 32.2878C39.5668 32.2884 39.5722 32.2891 39.5775 32.2898C39.5805 32.2901 39.5834 32.2905 39.5863 32.291C39.9344 32.3406 40.2552 32.5155 40.4551 32.842C40.6272 33.1231 40.6531 33.429 40.6531 33.6397V35.7865C40.6531 36.0468 40.5982 36.345 40.4225 36.6092C40.2342 36.8923 39.9444 37.0775 39.6038 37.1341C39.5885 37.1367 39.5731 37.1388 39.5577 37.1404L36.6541 37.4434C36.4754 37.9251 36.261 38.4006 36.0582 38.8491L37.7925 41.0186C38.2624 41.6058 38.0811 42.3304 37.7463 42.7482C37.7289 42.77 37.7103 42.7908 37.6905 42.8105L36.1845 44.3174C35.6682 44.8363 34.9079 44.8334 34.3918 44.4212L34.3854 44.4161L32.2571 42.6783C31.6227 43.0281 30.9569 43.2954 30.2677 43.5158L29.9667 46.3264C29.9651 46.3412 29.9631 46.356 29.9606 46.3708C29.8652 46.9425 29.3734 47.5103 28.6594 47.5103H26.4668C25.7531 47.5103 25.2625 46.941 25.1673 46.3708C25.1648 46.3558 25.1627 46.3407 25.1611 46.3256L24.8586 43.4726C24.2343 43.2842 23.6216 43.0205 23.0537 42.722L20.9629 44.4212C20.6683 44.6565 20.3168 44.7234 20.0208 44.6997C19.7298 44.6764 19.4126 44.5596 19.172 44.3193L19.1634 44.3107L17.6831 42.7847C17.1008 42.2785 17.1877 41.4872 17.5616 41.0193L17.5626 41.018L19.278 38.8629C19.0471 38.3942 18.8396 37.9307 18.6654 37.3987L15.7957 37.0946C15.7793 37.0929 15.7628 37.0906 15.7465 37.0878C15.0616 36.9697 14.6352 36.3305 14.7016 35.6922V33.6444C14.625 32.9439 15.131 32.3968 15.7509 32.2937C15.7636 32.2915 15.7764 32.2898 15.7892 32.2883L18.4589 31.9822C18.6461 31.2452 18.9108 30.5821 19.2475 29.9319L17.5626 27.8152L17.5617 27.8141C17.1104 27.2496 17.2373 26.495 17.664 26.0684L19.2177 24.5139C19.7266 24.0058 20.49 24.0811 20.9614 24.4565L20.9628 24.4577L23.0284 26.0935C23.7237 25.6968 24.4445 25.4286 25.1325 25.2117L25.389 22.6047C25.3906 22.5876 25.3929 22.5706 25.3957 22.5537C25.4555 22.1955 25.6586 21.9011 25.9706 21.7274ZM26.8767 23.0781L26.6345 25.5411C26.632 25.5663 26.6283 25.5914 26.6233 25.6163C26.5202 26.1309 26.1227 26.5398 25.6153 26.6606C24.92 26.8788 24.2654 27.1291 23.6645 27.4904C23.6482 27.5003 23.6315 27.5095 23.6145 27.518C23.3969 27.6277 23.1496 27.6735 22.9183 27.6613C22.7069 27.6502 22.419 27.584 22.1807 27.37L20.1385 25.7527L18.8771 27.0147L20.5181 29.0764C20.7331 29.3147 20.7996 29.603 20.8107 29.8149C20.823 30.0467 20.7769 30.2935 20.6682 30.5106C20.6662 30.5146 20.6641 30.5186 20.662 30.5226C20.6611 30.5244 20.6602 30.5261 20.6593 30.5278C20.322 31.1608 20.0743 31.7822 19.9087 32.4811C19.7662 33.149 19.1541 33.4077 18.8104 33.4763C18.7896 33.4804 18.7688 33.4837 18.7478 33.4861L16.2285 33.7749V35.6049L18.9419 35.8924C19.258 35.9081 19.501 36.0625 19.6483 36.1886C19.8124 36.329 19.9416 36.5037 20.0287 36.6776C20.0476 36.7154 20.0634 36.7547 20.0758 36.7952C20.2405 37.331 20.4477 37.7895 20.7139 38.3211L20.7151 38.3235C20.9715 38.84 20.8048 39.3772 20.5503 39.716C20.546 39.7217 20.5416 39.7274 20.5372 39.733L18.8754 41.8207L20.1389 43.1232L22.1735 41.4696C22.6224 41.0526 23.2649 41.0453 23.7166 41.3451C24.2538 41.6311 24.8202 41.8726 25.376 42.0333C25.9681 42.1686 26.2642 42.6553 26.3493 43.0802C26.3539 43.1032 26.3574 43.1263 26.3599 43.1496L26.6604 45.9832H28.4678L28.7664 43.1944C28.7689 43.1714 28.7724 43.1485 28.777 43.1258C28.8616 42.7035 29.1545 42.2201 29.7395 42.0814C30.4218 41.8668 31.0432 41.614 31.6139 41.2884C31.6445 41.2709 31.6763 41.2556 31.7091 41.2425C32.0934 41.089 32.6237 41.0385 33.0877 41.386C33.0962 41.3924 33.1047 41.399 33.1129 41.4057L35.2179 43.1244L36.4975 41.8441L34.7744 39.6886C34.7696 39.6826 34.7649 39.6765 34.7603 39.6704C34.5208 39.3516 34.3182 38.7789 34.6561 38.2438C34.8691 37.7726 35.0684 37.3307 35.2299 36.8922C35.3756 36.3206 35.8537 36.0347 36.2702 35.9515C36.2934 35.9469 36.3169 35.9433 36.3404 35.9409L39.1261 35.6501V33.7764L36.4738 33.4866C36.4514 33.4841 36.4292 33.4807 36.4072 33.4763C35.9705 33.3891 35.4744 33.0797 35.3514 32.4654L35.3496 32.4564C35.2309 31.8241 34.9905 31.2127 34.651 30.5744C34.6477 30.5681 34.6444 30.5618 34.6412 30.5554C34.385 30.0391 34.5513 29.5019 34.806 29.1628C34.8106 29.1567 34.8153 29.1506 34.8201 29.1447L36.5247 27.0124L35.2849 25.7344L33.1955 27.3891C33.1901 27.3934 33.1846 27.3976 33.1791 27.4017C32.8554 27.6441 32.264 27.8534 31.7183 27.4807C31.1504 27.1581 30.5789 26.9125 29.9593 26.7042C29.3801 26.5628 29.0896 26.0821 29.0054 25.6619C29.0011 25.6406 28.9978 25.6191 28.9953 25.5976L28.7109 23.0781H26.8767ZM28.9405 23.0821L28.9394 23.0819L28.9405 23.0821ZM27.6545 30.7042C25.6116 30.7042 23.9448 32.3718 23.9448 34.4166C23.9448 36.4615 25.6117 38.1291 27.6545 38.1291C29.6976 38.1291 31.3657 36.4611 31.3657 34.4166C31.3657 32.3722 29.6977 30.7042 27.6545 30.7042ZM22.4178 34.4166C22.4178 31.5294 24.7674 29.1772 27.6545 29.1772C30.5412 29.1772 32.8927 31.5291 32.8927 34.4166C32.8927 37.3042 30.5412 39.6561 27.6545 39.6561C24.7674 39.6561 22.4178 37.3038 22.4178 34.4166Z" fill="white"/>
</svg>
