<svg width="48" height="48" viewBox="0 0 48 48" fill="none" xmlns="http://www.w3.org/2000/svg">
<path fill-rule="evenodd" clip-rule="evenodd" d="M6.77945 4.35869C6.91195 4.13627 7.15174 4 7.41064 4H16.5513C16.8102 4 17.05 4.13627 17.1825 4.35869L21.8584 12.2081C21.9949 12.4371 21.9965 12.722 21.8628 12.9527L17.1868 21.015C17.0554 21.2416 16.8133 21.3811 16.5513 21.3811H7.41064C7.14867 21.3811 6.90652 21.2416 6.77509 21.015L2.09915 12.9527C1.96541 12.722 1.96707 12.4371 2.10351 12.2081L6.77945 4.35869ZM7.82815 5.46939L3.5869 12.589L7.83385 19.9117H16.1281L20.375 12.589L16.1338 5.46939H7.82815Z" fill="#5A6CC0"/>
<path fill-rule="evenodd" clip-rule="evenodd" d="M26.7859 27.8906C26.0951 27.7752 25.4796 27.5816 24.9037 27.388L25.3263 26.3842C25.7873 26.5778 26.3633 26.7316 26.9392 26.8868L26.7859 27.8906ZM23.9064 26.8483C23.3305 26.5009 22.7929 26.1138 22.3702 25.651L23.1376 24.8779C23.5603 25.3036 23.983 25.651 24.4823 25.9215L23.9064 26.8483ZM21.6397 24.7241C21.295 24.1831 20.9872 23.6037 20.7957 22.9473L21.7943 22.6384C21.9475 23.1794 22.2156 23.6806 22.4851 24.1062L21.6397 24.7241ZM20.488 21.8269C20.4113 21.209 20.3347 20.6295 20.3347 19.9732L21.3716 19.9347V19.9732C21.3716 20.5911 21.4099 21.1705 21.5248 21.6731L20.488 21.8269Z" fill="#5A6CC0"/>
<path fill-rule="evenodd" clip-rule="evenodd" d="M28.0882 38.9646C27.9032 38.9646 27.7196 38.9646 27.5347 38.9646L27.5717 37.8322C28.0882 37.8733 28.7142 37.8322 29.2307 37.7513L29.3404 38.8837C28.9362 38.9248 28.4937 38.9646 28.0882 38.9646ZM30.4473 38.641L30.1883 37.5498C30.7048 37.388 31.1844 37.1865 31.6269 36.9027L32.1419 37.8322C31.6268 38.1968 31.0364 38.4395 30.4473 38.641ZM33.0639 37.1056L32.4009 36.2556C32.8434 35.8923 33.1749 35.407 33.4695 34.9628L34.3175 35.529C33.986 36.1349 33.5804 36.66 33.0639 37.1056ZM34.871 34.5172L33.912 34.0333C34.1326 33.5069 34.3545 32.9407 34.4654 32.3347L35.4601 32.5773C35.2765 33.3053 35.0916 33.9113 34.871 34.5172Z" fill="#5A6CC0"/>
<path fill-rule="evenodd" clip-rule="evenodd" d="M6.69798 12.6907C6.69798 9.76181 9.0637 7.38684 11.9816 7.38684C14.8994 7.38684 17.2651 9.76181 17.2651 12.6907C17.2651 15.6197 14.8994 17.9947 11.9816 17.9947C9.0637 17.9947 6.69798 15.6197 6.69798 12.6907Z" fill="#5A6CC0"/>
<path fill-rule="evenodd" clip-rule="evenodd" d="M30.3751 13.2362C30.5065 13.0096 30.7487 12.8701 31.0106 12.8701H40.1513C40.4133 12.8701 40.6554 13.0096 40.7868 13.2362L45.4628 21.2981C45.5965 21.5287 45.5949 21.8137 45.4584 22.0427L40.7825 29.8925C40.65 30.1149 40.4102 30.2512 40.1513 30.2512H31.0106C30.7517 30.2512 30.5119 30.1149 30.3794 29.8925L25.7035 22.0427C25.5671 21.8137 25.5654 21.5287 25.6992 21.2981L30.3751 13.2362ZM31.4338 14.3395L27.1869 21.6618L31.4282 28.7818H39.7338L43.975 21.6618L39.7281 14.3395H31.4338Z" fill="#5A6CC0"/>
<path fill-rule="evenodd" clip-rule="evenodd" d="M30.298 21.5609C30.298 18.6318 32.6637 16.257 35.5816 16.257C38.4994 16.257 40.8651 18.6318 40.8651 21.5609C40.8651 24.4899 38.4994 26.8648 35.5816 26.8648C32.6637 26.8648 30.298 24.4899 30.298 21.5609Z" fill="#5A6CC0"/>
<path fill-rule="evenodd" clip-rule="evenodd" d="M10.7775 27.1624C10.9095 26.9379 11.1504 26.8 11.4109 26.8H20.5511C20.8115 26.8 21.0525 26.9379 21.1844 27.1624L25.8606 35.1183C25.9957 35.3481 25.9957 35.633 25.8606 35.8628L21.1844 43.8187C21.0525 44.0432 20.8115 44.1811 20.5511 44.1811H11.4109C11.1504 44.1811 10.9095 44.0432 10.7775 43.8187L6.10131 35.8628C5.96623 35.633 5.96623 35.3481 6.10131 35.1183L10.7775 27.1624ZM11.8313 28.2694L7.5869 35.4905L11.8313 42.7117H20.1307L24.375 35.4905L20.1307 28.2694H11.8313Z" fill="#5A6CC0"/>
<path fill-rule="evenodd" clip-rule="evenodd" d="M21.2659 35.4907C21.2659 32.5908 18.9141 30.1868 15.9647 30.1868C13.0505 30.1868 10.6988 32.5908 10.6988 35.4907C10.6988 38.4609 13.0505 40.7947 15.9647 40.7947C18.9141 40.7947 21.2659 38.4609 21.2659 35.4907Z" fill="#5A6CC0"/>
<path d="M11.939 15.1185V11.3686L11.1426 11.8476V11.3627L11.939 10.8866H12.3769V15.1185H11.939Z" fill="#5A6CC0"/>
<path d="M34.1522 23.9319L34.1551 23.5381L36.0683 21.8101C36.2328 21.6612 36.3416 21.5201 36.3945 21.3869C36.4493 21.2517 36.4767 21.1106 36.4767 20.9637C36.4767 20.7893 36.4356 20.6316 36.3533 20.4905C36.271 20.3495 36.1603 20.2378 36.0212 20.1555C35.8821 20.0713 35.7264 20.0292 35.554 20.0292C35.3737 20.0292 35.2131 20.0723 35.072 20.1585C34.9309 20.2447 34.8193 20.3583 34.737 20.4994C34.6567 20.6404 34.6175 20.7942 34.6194 20.9607H34.1786C34.1786 20.7041 34.2394 20.4739 34.3608 20.2701C34.4823 20.0664 34.6469 19.9067 34.8545 19.7911C35.0622 19.6736 35.2973 19.6148 35.5598 19.6148C35.8165 19.6148 36.0467 19.6755 36.2505 19.797C36.4562 19.9165 36.6178 20.0791 36.7354 20.2848C36.8549 20.4886 36.9146 20.7159 36.9146 20.9666C36.9146 21.143 36.8931 21.2987 36.85 21.4339C36.8088 21.5671 36.7432 21.6915 36.6531 21.8071C36.5649 21.9207 36.4523 22.0383 36.3151 22.1598L34.6165 23.6938L34.5489 23.5175H36.9146V23.9319H34.1522Z" fill="#5A6CC0"/>
<path d="M15.8592 37.7343C15.6496 37.7343 15.4566 37.6971 15.2803 37.6226C15.1039 37.5482 14.9521 37.4424 14.8247 37.3052C14.6974 37.1661 14.6043 37.0006 14.5456 36.8086L14.957 36.6852C15.0275 36.8948 15.1431 37.0535 15.3038 37.1612C15.4664 37.269 15.6496 37.3209 15.8533 37.317C16.0414 37.3131 16.203 37.271 16.3382 37.1906C16.4754 37.1103 16.5802 36.9986 16.6527 36.8556C16.7252 36.7126 16.7614 36.547 16.7614 36.359C16.7614 36.071 16.6772 35.8398 16.5087 35.6654C16.3421 35.4891 16.1217 35.4009 15.8474 35.4009C15.771 35.4009 15.6907 35.4117 15.6065 35.4332C15.5222 35.4528 15.4438 35.4812 15.3714 35.5185L15.1539 35.1746L16.7996 33.6553L16.8701 33.8316H14.7131V33.4172H17.1581V33.8375L15.724 35.207L15.7181 35.0365C16.012 34.9993 16.2706 35.0326 16.494 35.1364C16.7173 35.2403 16.8917 35.399 17.0171 35.6125C17.1444 35.8241 17.2081 36.0729 17.2081 36.359C17.2081 36.6293 17.1493 36.8683 17.0318 37.076C16.9162 37.2817 16.7565 37.4434 16.5527 37.5609C16.349 37.6765 16.1178 37.7343 15.8592 37.7343Z" fill="#5A6CC0"/>
</svg>
