<svg width="48" height="48" viewBox="0 0 48 48" fill="none" xmlns="http://www.w3.org/2000/svg">
<path d="M31.4578 14.7596L28.4884 4.69645L41.6878 17.0901L31.4578 14.7596Z" fill="white"/>
<path d="M27.82 4L30.9666 15.2093L44 18.0653L27.82 4ZM27.82 4H4V44H44V18.0653" stroke="white" stroke-width="1.5" stroke-miterlimit="10" stroke-linecap="round" stroke-linejoin="round"/>
<path fill-rule="evenodd" clip-rule="evenodd" d="M21.4374 26.7488C21.5562 26.63 21.7487 26.63 21.8674 26.7488L23.8021 28.6835C23.9208 28.8022 23.9208 28.9947 23.8021 29.1134C23.6834 29.2321 23.4909 29.2321 23.3722 29.1134L21.9564 27.6977V35.0707H21.3484V27.6977L19.9327 29.1134C19.8139 29.2321 19.6214 29.2321 19.5027 29.1134C19.384 28.9947 19.384 28.8022 19.5027 28.6835L21.4374 26.7488Z" fill="white"/>
<path d="M25.7415 18.4723L22.5857 23.9123C22.5123 24.0201 22.4701 24.1461 22.4639 24.2763C22.4577 24.4066 22.4877 24.536 22.5505 24.6503C22.6134 24.7645 22.7066 24.8592 22.8199 24.9237C22.9333 24.9882 23.0622 25.0201 23.1926 25.0158H29.5098C29.6402 25.0201 29.7691 24.9882 29.8825 24.9237C29.9958 24.8592 30.089 24.7645 30.1519 24.6503C30.2147 24.536 30.2447 24.4066 30.2385 24.2763C30.2323 24.1461 30.1901 24.0201 30.1167 23.9123L26.9609 18.4723C26.8986 18.3659 26.8096 18.2776 26.7026 18.2162C26.5957 18.1548 26.4745 18.1226 26.3512 18.1226C26.2279 18.1226 26.1067 18.1548 25.9998 18.2162C25.8928 18.2776 25.8038 18.3659 25.7415 18.4723Z" fill="white"/>
<path fill-rule="evenodd" clip-rule="evenodd" d="M18.8388 22.3227C19.1691 21.7831 19.6446 21.3242 20.2211 20.9996C20.7976 20.675 21.4428 20.5029 22.0871 20.4938C22.3849 20.4895 22.6825 20.5201 22.973 20.5865L23.1547 19.9999C22.9523 19.9536 22.7471 19.9221 22.5406 19.9052C22.3837 19.8923 22.226 19.8878 22.0684 19.8916C21.325 19.9094 20.5821 20.1114 19.9169 20.4859C19.2518 20.8604 18.701 21.3868 18.3134 22.0058C18.1231 22.3097 17.9722 22.6359 17.8664 22.9773C17.7944 23.2097 17.7449 23.44 17.7173 23.6707C17.7158 23.6833 17.7143 23.6959 17.7129 23.7085C17.7037 23.7933 17.6974 23.8782 17.694 23.9633C17.6902 24.0574 17.6901 24.1518 17.6935 24.2466C17.6938 24.2558 17.6942 24.2649 17.6946 24.2741L18.0315 24.2648L18.3324 23.9398C18.3457 23.6651 18.3941 23.3889 18.4783 23.1172C18.5645 22.8386 18.6862 22.572 18.8388 22.3227Z" fill="white"/>
<path fill-rule="evenodd" clip-rule="evenodd" d="M29.2517 26.8375C29.491 27.3568 29.6181 27.9235 29.6181 28.5028C29.6181 29.5894 29.171 30.6314 28.3751 31.3998C27.5792 32.1681 26.4997 32.5998 25.3741 32.5998H23.2738V33.3231H25.3741C26.6984 33.3231 27.9685 32.8153 28.9049 31.9113C29.8413 31.0073 30.3674 29.7812 30.3674 28.5028C30.3674 27.7154 30.1678 26.9142 29.7958 26.2295H28.9049C29.0384 26.4228 29.1544 26.6262 29.2517 26.8375Z" fill="white"/>
<path fill-rule="evenodd" clip-rule="evenodd" d="M16.7652 33.3114C16.0149 33.2534 15.2894 32.9817 14.6611 32.5204C13.9483 31.9971 13.3927 31.2532 13.0647 30.3829C12.7366 29.5127 12.6508 28.555 12.818 27.6311C12.9853 26.7072 13.3981 25.8585 14.0043 25.1925C14.6105 24.5264 15.3828 24.0727 16.2236 23.889C16.6803 23.7891 17.1445 23.7714 17.6006 23.8337C17.8316 23.8653 18.0605 23.9174 18.2853 23.9898L17.7741 24.5404C17.3034 24.4408 16.8172 24.4414 16.3424 24.5452C15.6197 24.7031 14.9558 25.093 14.4348 25.6655C13.9138 26.2381 13.559 26.9675 13.4152 27.7616C13.2715 28.5557 13.3452 29.3789 13.6272 30.1269C13.9092 30.875 14.3867 31.5143 14.9994 31.9642C15.612 32.414 16.3323 32.6541 17.0692 32.6541H20.2383V33.3231H17.0692C16.9675 33.3231 16.8661 33.3192 16.7652 33.3114Z" fill="white"/>
</svg>
