<svg width="161" height="53" viewBox="0 0 161 53" fill="none" xmlns="http://www.w3.org/2000/svg">
<path d="M2.87049 0H11.691C13.0677 0 14.3067 0.177 15.408 0.531C16.5093 0.865334 17.4435 1.357 18.2105 2.006C18.9972 2.63533 19.597 3.41217 20.01 4.3365C20.423 5.26083 20.6295 6.30317 20.6295 7.4635C20.6295 8.60417 20.423 9.63667 20.01 10.561C19.597 11.4853 18.9972 12.272 18.2105 12.921C17.4435 13.5503 16.5093 14.042 15.408 14.396C14.3067 14.7303 13.0677 14.8975 11.691 14.8975H7.41349V20.65H2.87049V11.151H11.455C12.9693 11.151 14.11 10.8363 14.877 10.207C15.644 9.558 16.0275 8.6435 16.0275 7.4635C16.0275 6.2835 15.644 5.369 14.877 4.72C14.11 4.071 12.9693 3.7465 11.455 3.7465H2.87049V0Z" fill="white"/>
<path d="M42.2737 20.65H37.3472L33.3057 14.8385H28.6742V20.65H24.1312V11.1805H32.7157C34.2301 11.1805 35.3707 10.856 36.1377 10.207C36.9047 9.558 37.2882 8.6435 37.2882 7.4635C37.2882 6.2835 36.9047 5.369 36.1377 4.72C35.3707 4.071 34.2301 3.7465 32.7157 3.7465H24.1312V0H32.9517C34.3284 0 35.5674 0.177 36.6687 0.531C37.7701 0.865334 38.7042 1.357 39.4712 2.006C40.2579 2.63533 40.8577 3.41217 41.2707 4.3365C41.6837 5.26083 41.8902 6.30317 41.8902 7.4635C41.8902 9.01717 41.5166 10.3545 40.7692 11.4755C40.0219 12.5768 38.9697 13.4127 37.6127 13.983L42.2737 20.65Z" fill="white"/>
<path d="M45.7953 20.65V0H50.3383V20.65H45.7953Z" fill="white"/>
<path d="M59.6949 20.65H55.4174V0H59.1639L67.0109 13.039L74.7104 0H78.4864L78.5159 20.65H74.2384L74.2089 7.9945L67.9549 18.408H65.9194L59.6949 8.201V20.65Z" fill="white"/>
<path d="M83.5922 8.378H99.0502V11.9475H83.5922V8.378ZM83.5922 0H99.0502V3.6875H83.5922V0ZM83.5922 20.65H99.0502V16.9625H83.5922V20.65Z" fill="white"/>
<path d="M107.632 20.65V3.7465H100.965V0H118.842V3.7465H112.175V20.65H107.632Z" fill="white"/>
<path d="M121.504 8.378H136.962V11.9475H121.504V8.378ZM121.504 0H136.962V3.6875H121.504V0ZM121.504 20.65H136.962V16.9625H121.504V20.65Z" fill="white"/>
<path d="M160.795 20.65H155.485L148.7 12.4195L145.809 15.399V20.65H141.296V0H145.809V9.853L155.22 0H160.294L151.709 9.204L160.795 20.65Z" fill="white"/>
<path d="M6.195 52.1117C4.91667 52.1117 3.717 51.9347 2.596 51.5807C1.49467 51.2071 0.629333 50.7351 0 50.1647L0.767 48.8372C1.357 49.3486 2.14367 49.7812 3.127 50.1353C4.11033 50.4893 5.17233 50.6662 6.313 50.6662C7.906 50.6662 9.03683 50.4106 9.7055 49.8993C10.3938 49.3879 10.738 48.7192 10.738 47.8932C10.738 47.1656 10.4823 46.6247 9.971 46.2707C9.47933 45.9167 8.85 45.6414 8.083 45.4447C7.33567 45.2481 6.5195 45.0809 5.6345 44.9432C4.76917 44.8056 3.953 44.5991 3.186 44.3237C2.43867 44.0288 1.80933 43.6157 1.298 43.0847C0.806333 42.5341 0.5605 41.7474 0.5605 40.7248C0.5605 40.1348 0.688333 39.5841 0.944 39.0728C1.19967 38.5417 1.57333 38.0894 2.065 37.7157C2.55667 37.3224 3.17617 37.0176 3.9235 36.8012C4.67083 36.5652 5.52633 36.4473 6.49 36.4473C7.47333 36.4473 8.44683 36.5849 9.4105 36.8602C10.3938 37.1159 11.2002 37.4699 11.8295 37.9222L11.092 39.2497C10.4233 38.7777 9.68583 38.4336 8.8795 38.2173C8.09283 38.0009 7.2865 37.8927 6.4605 37.8927C4.9855 37.8927 3.90383 38.1582 3.2155 38.6892C2.54683 39.2202 2.2125 39.8791 2.2125 40.6657C2.2125 41.4131 2.45833 41.9736 2.95 42.3472C3.46133 42.7209 4.09067 43.0159 4.838 43.2323C5.605 43.4289 6.42117 43.5961 7.2865 43.7337C8.1715 43.8714 8.98767 44.0779 9.735 44.3532C10.502 44.6286 11.1313 45.0317 11.623 45.5627C12.1343 46.0937 12.39 46.8509 12.39 47.8342C12.39 49.1322 11.859 50.1746 10.797 50.9613C9.735 51.7282 8.201 52.1117 6.195 52.1117Z" fill="white"/>
<path d="M28.8936 52.1117C27.7726 52.1117 26.7401 51.9249 25.7961 51.5513C24.8521 51.1579 24.036 50.6171 23.3476 49.9287C22.6593 49.2207 22.1185 48.3849 21.7251 47.4212C21.3318 46.4576 21.1351 45.4054 21.1351 44.2647C21.1351 43.1241 21.3318 42.0817 21.7251 41.1377C22.1185 40.1741 22.6593 39.3481 23.3476 38.6597C24.036 37.9517 24.8521 37.4109 25.7961 37.0373C26.7401 36.6439 27.7726 36.4473 28.8936 36.4473C30.0146 36.4473 31.0471 36.6439 31.9911 37.0373C32.9351 37.4109 33.7513 37.9517 34.4396 38.6597C35.128 39.3481 35.6688 40.1741 36.0621 41.1377C36.4555 42.0817 36.6521 43.1241 36.6521 44.2647C36.6521 45.4054 36.4555 46.4576 36.0621 47.4212C35.6688 48.3849 35.128 49.2207 34.4396 49.9287C33.7513 50.6171 32.9351 51.1579 31.9911 51.5513C31.0471 51.9249 30.0146 52.1117 28.8936 52.1117ZM28.8936 50.6367C29.759 50.6367 30.5653 50.4892 31.3126 50.1942C32.06 49.8796 32.6991 49.4469 33.2301 48.8962C33.7808 48.3259 34.2036 47.6474 34.4986 46.8607C34.8133 46.0741 34.9706 45.2087 34.9706 44.2647C34.9706 43.3207 34.8133 42.4652 34.4986 41.6982C34.2036 40.9116 33.7808 40.2429 33.2301 39.6922C32.6991 39.1219 32.06 38.6893 31.3126 38.3942C30.5653 38.0796 29.759 37.9222 28.8936 37.9222C28.0283 37.9222 27.222 38.0796 26.4746 38.3942C25.7273 38.6893 25.0783 39.1219 24.5276 39.6922C23.9966 40.2429 23.5738 40.9116 23.2591 41.6982C22.9641 42.4652 22.8166 43.3207 22.8166 44.2647C22.8166 45.2087 22.9641 46.0741 23.2591 46.8607C23.5738 47.6474 23.9966 48.3259 24.5276 48.8962C25.0783 49.4469 25.7273 49.8796 26.4746 50.1942C27.222 50.4892 28.0283 50.6367 28.8936 50.6367Z" fill="white"/>
<path d="M47.4807 51.9937V30.1047H49.1327V51.9937H47.4807Z" fill="white"/>
<path d="M67.9145 52.1117C66.9312 52.1117 66.0364 51.9741 65.23 51.6987C64.4237 51.4234 63.7354 51.0202 63.165 50.4893C62.6144 49.9386 62.1817 49.2502 61.867 48.4242C61.572 47.5982 61.4245 46.6444 61.4245 45.5627V36.5653H63.0765V45.4152C63.0765 47.1459 63.5092 48.4538 64.3745 49.3387C65.2399 50.2041 66.4592 50.6367 68.0325 50.6367C69.7632 50.6367 71.1202 50.1156 72.1035 49.0732C73.0869 48.0112 73.5785 46.5657 73.5785 44.7367V36.5653H75.2305V51.9937H73.6375V48.8667C73.1262 49.8894 72.369 50.6859 71.366 51.2562C70.3827 51.8266 69.2322 52.1117 67.9145 52.1117Z" fill="white"/>
<path d="M94.5212 37.9517H89.6832V47.7162C89.6832 48.6799 89.9094 49.4174 90.3617 49.9287C90.8337 50.4401 91.5417 50.6958 92.4857 50.6958C93.4101 50.6958 94.1967 50.4204 94.8457 49.8698L95.4947 51.0498C95.1014 51.4038 94.6196 51.6693 94.0492 51.8462C93.4789 52.0232 92.8987 52.1117 92.3087 52.1117C90.9124 52.1117 89.8504 51.7381 89.1227 50.9907C88.3951 50.2434 88.0312 49.1912 88.0312 47.8342V37.9517H85.1992V36.5653H88.0312V33.1727H89.6832V36.5653H94.5212V37.9517Z" fill="white"/>
<path d="M105.831 51.9937V36.5653H107.483V51.9937H105.831ZM106.657 32.9072C106.284 32.9072 105.969 32.7892 105.713 32.5532C105.477 32.2976 105.359 31.9927 105.359 31.6387C105.359 31.2847 105.477 30.9897 105.713 30.7537C105.969 30.4981 106.284 30.3702 106.657 30.3702C107.031 30.3702 107.336 30.4981 107.572 30.7537C107.827 30.9897 107.955 31.2749 107.955 31.6092C107.955 31.9829 107.827 32.2976 107.572 32.5532C107.336 32.7892 107.031 32.9072 106.657 32.9072Z" fill="white"/>
<path d="M126.088 52.1117C124.967 52.1117 123.935 51.9249 122.991 51.5513C122.047 51.1579 121.23 50.6171 120.542 49.9287C119.854 49.2207 119.313 48.3849 118.92 47.4212C118.526 46.4576 118.33 45.4054 118.33 44.2647C118.33 43.1241 118.526 42.0817 118.92 41.1377C119.313 40.1741 119.854 39.3481 120.542 38.6597C121.23 37.9517 122.047 37.4109 122.991 37.0373C123.935 36.6439 124.967 36.4473 126.088 36.4473C127.209 36.4473 128.242 36.6439 129.186 37.0373C130.13 37.4109 130.946 37.9517 131.634 38.6597C132.322 39.3481 132.863 40.1741 133.257 41.1377C133.65 42.0817 133.847 43.1241 133.847 44.2647C133.847 45.4054 133.65 46.4576 133.257 47.4212C132.863 48.3849 132.322 49.2207 131.634 49.9287C130.946 50.6171 130.13 51.1579 129.186 51.5513C128.242 51.9249 127.209 52.1117 126.088 52.1117ZM126.088 50.6367C126.953 50.6367 127.76 50.4892 128.507 50.1942C129.254 49.8796 129.894 49.4469 130.425 48.8962C130.975 48.3259 131.398 47.6474 131.693 46.8607C132.008 46.0741 132.165 45.2087 132.165 44.2647C132.165 43.3207 132.008 42.4652 131.693 41.6982C131.398 40.9116 130.975 40.2429 130.425 39.6922C129.894 39.1219 129.254 38.6893 128.507 38.3942C127.76 38.0796 126.953 37.9222 126.088 37.9222C125.223 37.9222 124.416 38.0796 123.669 38.3942C122.922 38.6893 122.273 39.1219 121.722 39.6922C121.191 40.2429 120.768 40.9116 120.454 41.6982C120.159 42.4652 120.011 43.3207 120.011 44.2647C120.011 45.2087 120.159 46.0741 120.454 46.8607C120.768 47.6474 121.191 48.3259 121.722 48.8962C122.273 49.4469 122.922 49.8796 123.669 50.1942C124.416 50.4892 125.223 50.6367 126.088 50.6367Z" fill="white"/>
<path d="M152.286 36.4473C154.174 36.4473 155.698 36.9979 156.859 38.0993C158.019 39.1809 158.599 40.8133 158.599 42.9963V51.9937H156.947V43.1437C156.947 41.4131 156.514 40.1151 155.649 39.2497C154.784 38.3647 153.584 37.9222 152.05 37.9222C150.26 37.9222 148.854 38.4533 147.832 39.5153C146.829 40.5576 146.327 41.9933 146.327 43.8223V51.9937H144.675V36.5653H146.268V39.7217C146.799 38.6794 147.576 37.8731 148.599 37.3027C149.641 36.7324 150.87 36.4473 152.286 36.4473Z" fill="white"/>
</svg>
