<svg width="516" height="89" viewBox="0 0 516 89" fill="none" xmlns="http://www.w3.org/2000/svg">
<g clip-path="url(#clip0_375_2209)">
<path fill-rule="evenodd" clip-rule="evenodd" d="M441.9 0C455.516 0 467.424 9.16915 470.904 22.3324L482.625 66.6675C486.104 79.8308 498.013 89 511.628 89H848C864.569 89 878 102.431 878 119V1124C878 1140.57 864.569 1154 848 1154H-332C-348.569 1154 -362 1140.57 -362 1124V119C-362 102.431 -348.569 89 -332 89H4.37184C17.9874 89 29.8955 79.8308 33.3754 66.6676L45.0961 22.3325C48.576 9.16917 60.4842 0 74.0997 0H441.9Z" fill="#EBEDF7"/>
</g>
<defs>
<clipPath id="clip0_375_2209">
<rect width="516" height="89" fill="white"/>
</clipPath>
</defs>
</svg>
